<svg width="169" height="94" viewBox="0 0 169 94" fill="none" xmlns="http://www.w3.org/2000/svg">
<g clip-path="url(#clip0_102_1311)">
<path d="M61.5134 28.4102H17.6719V31.6072L32.5139 31.6213L32.5068 50.6132H47.2218L47.2359 31.6566H63.4895L61.5134 28.4102Z" fill="#266AEA"/>
<path d="M14.6726 50.6089L14.6938 -0.0078125H0.0282308L0 50.6089H14.6726Z" fill="#266AEA"/>
<path d="M93.1245 50.6018L62.4877 -0.0078125H45.7119L76.7298 50.6018H93.1245Z" fill="#266AEA"/>
<path d="M56.6724 20.5226L54.9644 17.7137H47.2223L47.2435 -0.0078125H32.8814H32.5003L32.4932 17.7419L17.6724 17.7278V20.5226H56.6724Z" fill="#266AEA"/>
<path d="M59.9891 25.9398L58.1965 23.0039H17.6509V25.9398H59.9891Z" fill="#266AEA"/>
<path d="M14.0871 83.665C13.9883 84.8648 13.9601 85.2177 13.9107 86.1845L13.7554 86.361C13.1202 86.6927 11.5182 87.4831 8.94218 87.4831C3.36672 87.4831 0.0849609 83.792 0.0849609 78.1107C0.0849609 76.8615 0.183767 73.7844 2.39984 71.3637C4.5665 68.9924 7.31189 68.7383 9.11862 68.7383C11.4617 68.7383 12.9368 69.2464 13.7766 69.5499L13.8754 69.7546C13.7484 70.672 13.7201 70.9261 13.6496 72.02L13.4237 72.1188C12.9156 71.7871 11.617 70.9755 9.37269 70.9755C5.30049 70.9755 3.08442 73.7774 3.08442 78.0542C3.08442 82.8675 5.70983 85.1047 9.21743 85.1047C11.6099 85.1047 13.1132 84.1096 13.9036 83.5521L14.0801 83.6509L14.0871 83.665Z" fill="#7D858B" stroke="#7D858B" stroke-width="0.162324" stroke-miterlimit="10"/>
<path d="M19.2531 87.0756C18.0321 87.1038 17.7781 87.125 16.5783 87.1744L16.4513 86.998C16.5007 85.1912 16.5783 82.8975 16.5783 78.0137C16.5783 74.4991 16.5783 70.7303 16.3242 67.4768L16.4513 67.3215C17.7004 67.1169 17.9545 67.0675 19.2249 66.7852L19.3801 66.9616C19.2037 70.2998 19.2037 73.6592 19.2037 76.9904C19.2037 82.5658 19.2813 84.4996 19.4084 86.9203L19.2531 87.0756Z" fill="#7D858B" stroke="#7D858B" stroke-width="0.162324" stroke-miterlimit="10"/>
<path d="M25.6616 87.075C24.3347 87.1032 24.1371 87.1032 22.888 87.1738L22.7609 86.9974C22.8385 85.6494 22.9162 84.4778 22.9162 81.6478C22.9162 76.7851 22.8385 75.8676 22.6621 74.3644L22.7891 74.1879C23.8831 74.0115 24.2642 73.955 25.5416 73.6798L25.7957 73.835C25.718 75.1619 25.6404 76.531 25.6404 79.8198C25.6404 84.5555 25.6898 85.1906 25.7957 86.9197L25.6686 87.075H25.6616ZM27.5742 68.4149C26.325 70.1228 26.0991 70.4757 24.9488 72.3318L24.7723 72.4306C24.0877 72.4024 23.8054 72.4024 22.9162 72.4024L22.8174 72.2259C23.0714 71.6119 23.8125 69.9887 24.37 68.3302L24.5253 68.2031C25.0828 68.2314 25.5416 68.2314 26.0286 68.2314C26.5155 68.2314 26.9954 68.2314 27.4824 68.2031L27.5812 68.4078L27.5742 68.4149Z" fill="#7D858B" stroke="#7D858B" stroke-width="0.162324" stroke-miterlimit="10"/>
<path d="M40.5036 87.0759C39.2827 87.1042 39.1274 87.1042 37.9558 87.1747L37.7794 86.9983C37.7794 86.716 37.8076 86.4408 37.8076 86.1584C37.8359 84.9093 37.8359 83.6601 37.8359 82.4179C37.8359 78.494 37.8076 78.2399 37.6806 77.7106C37.1936 75.7768 35.7468 75.7768 35.3869 75.7768C33.8625 75.7768 32.6909 76.666 31.9993 77.2024C31.9711 81.6346 32.0275 83.9494 32.204 86.9277L32.0487 87.083C30.7995 87.1112 30.5948 87.1112 29.3739 87.1818L29.2468 87.0054C29.2751 85.5797 29.3245 84.2035 29.3245 82.3191C29.3245 78.2469 29.148 76.0803 29.021 74.3794L29.1763 74.203C30.4466 73.9701 30.6795 73.9207 31.8722 73.6948L32.0487 73.8713L32.0205 75.1981C32.6839 74.7393 34.2577 73.6172 36.502 73.6172C37.1372 73.6172 37.9276 73.716 38.6122 74.1042C39.2756 74.4853 39.812 75.071 40.0872 75.7556C40.4189 76.5178 40.4401 77.2801 40.4683 78.8609V81.8392C40.546 84.8175 40.5671 85.9608 40.6448 86.9277L40.4895 87.083L40.5036 87.0759Z" fill="#7D858B" stroke="#7D858B" stroke-width="0.162324" stroke-miterlimit="10"/>
<path d="M46.8696 87.0741C45.5428 87.1024 45.3451 87.1024 44.096 87.1729L43.9689 86.9965C44.0466 85.6485 44.1242 84.4769 44.1242 81.6469C44.1242 76.7842 44.0466 75.8667 43.8701 74.3635L43.9972 74.187C45.0911 74.0106 45.4722 73.9541 46.7496 73.6789L47.0037 73.8342C46.926 75.161 46.8484 76.5301 46.8484 79.819C46.8484 84.5546 46.8978 85.1898 47.0037 86.9189L46.8766 87.0741H46.8696ZM46.8978 70.1431C45.5992 70.1925 45.3169 70.2207 44.0748 70.3477L43.9195 70.1925C43.9477 69.8608 43.9478 69.5079 43.9478 69.1762C43.9478 68.7174 43.9195 68.3081 43.8983 67.8L44.0748 67.6447C45.4016 67.5459 45.6274 67.5177 46.8978 67.3906L47.0531 67.5459C47.0248 68.5904 47.0248 68.8445 47.0531 69.9666L46.8978 70.1431Z" fill="#7D858B" stroke="#7D858B" stroke-width="0.162324" stroke-miterlimit="10"/>
<path d="M60.0035 84.0682C59.9047 85.1621 59.8764 85.2891 59.7988 86.3336L59.6224 86.5101C58.8813 86.87 57.8933 87.3782 56.1077 87.3782C52.2613 87.3782 49.77 84.6045 49.77 80.6311C49.77 76.6577 52.2119 73.5312 56.1571 73.5312C57.8086 73.5312 58.9801 74.0676 59.6435 74.3429L59.7423 74.5193C59.6435 75.4368 59.6153 75.7685 59.5659 76.5307L59.3612 76.6295C58.5214 76.0155 57.5545 75.6344 56.5382 75.6344C54.428 75.6344 52.5648 77.2647 52.5648 80.5253C52.5648 83.9905 54.5268 85.2327 56.51 85.2327C58.2391 85.2327 59.3118 84.3434 59.7917 83.9623L59.9964 84.0611L60.0035 84.0682Z" fill="#7D858B" stroke="#7D858B" stroke-width="0.162324" stroke-miterlimit="10"/>
<path d="M71.8107 81.8553C71.8107 85.01 71.8389 85.2923 71.966 86.9437L71.8389 87.0708C70.6392 87.099 70.4415 87.1202 69.27 87.1696L69.1712 87.0143L69.1994 86.0968C68.7124 86.4779 67.5691 87.3954 65.6354 87.3954C63.0876 87.3954 61.3091 85.6663 61.3091 83.1468C61.3091 79.738 64.1603 78.6441 68.7407 78.1077L69.1712 78.0583C69.1712 77.3737 69.1712 76.8867 68.9453 76.4774C68.6913 76.0187 68.1055 75.5387 66.8351 75.5387C65.1837 75.5387 64.0333 76.0469 62.9676 76.5056L62.7629 76.3786C62.8123 75.207 62.8123 75.0518 62.8406 74.5225L62.9958 74.3672C64.4215 73.8591 65.8965 73.5273 67.3997 73.5273C69.2841 73.5273 71.1191 74.1625 71.6484 76.1528C71.8248 76.8656 71.8248 78.263 71.8248 79.3357V81.8553H71.8107ZM68.9595 79.9991C66.3905 80.3802 63.998 80.7402 63.998 83.0056C63.998 83.1327 63.998 85.3205 66.4187 85.3205C67.9996 85.3205 68.9171 84.4524 69.1924 84.1984V79.9497L68.9665 79.9991H68.9595Z" fill="#7D858B" stroke="#7D858B" stroke-width="0.162324" stroke-miterlimit="10"/>
<path d="M91.0567 69.6672C91.8965 72.469 92.8634 75.6238 93.6256 78.0445C94.4161 80.4864 95.6864 84.4104 96.4487 86.8523L96.3499 87.057C95.023 87.0852 94.4655 87.1064 93.3998 87.1558L93.2234 86.9793C92.5882 84.5868 92.3835 83.9023 91.7201 81.6086C90.7038 81.6086 89.7087 81.5803 88.6924 81.5803C87.5703 81.5803 86.3987 81.6086 85.3824 81.6086C84.6414 84.0011 84.4932 84.6151 83.8792 86.8805L83.7027 87.057C82.6088 87.057 82.3547 87.057 81.0773 87.1346L80.9785 86.9582C81.0561 86.6759 81.155 86.4218 81.2608 86.1677C82.2277 83.4153 83.1734 80.6699 84.0838 77.9175C85.6083 73.4147 86.1729 71.7562 86.9069 69.3143L87.1115 69.1379C88.89 69.1096 89.1229 69.1096 90.7532 69.0391L90.9297 69.2155L91.0567 69.6742V69.6672ZM86.0176 79.5689C86.8292 79.5689 87.6479 79.5972 88.4595 79.5972C89.3276 79.5972 90.2451 79.5689 91.1343 79.5689L88.6924 70.9658L86.0176 79.5689Z" fill="#7D858B" stroke="#7D858B" stroke-width="0.162324" stroke-miterlimit="10"/>
<path d="M109.435 87.0759C108.214 87.1042 108.059 87.1042 106.887 87.1747L106.711 86.9983C106.711 86.716 106.739 86.4408 106.739 86.1584C106.767 84.9093 106.767 83.6601 106.767 82.4179C106.767 78.494 106.739 78.2399 106.612 77.7106C106.125 75.7768 104.678 75.7768 104.318 75.7768C102.787 75.7768 101.622 76.666 100.93 77.2024C100.902 81.6346 100.959 83.9494 101.135 86.9277L100.98 87.083C99.7307 87.1112 99.526 87.1112 98.305 87.1818L98.178 87.0054C98.2062 85.5797 98.2556 84.2035 98.2556 82.3191C98.2556 78.2469 98.0792 76.0803 97.9521 74.3794L98.1074 74.203C99.3778 73.9701 99.6107 73.9207 100.803 73.6948L100.98 73.8713L100.952 75.1981C101.615 74.7393 103.189 73.6172 105.433 73.6172C106.068 73.6172 106.859 73.716 107.543 74.1042C108.207 74.4853 108.743 75.071 109.018 75.7556C109.35 76.5178 109.371 77.2801 109.399 78.8609V81.8392C109.477 84.8175 109.498 85.9608 109.576 86.9277L109.421 87.083L109.435 87.0759Z" fill="#7D858B" stroke="#7D858B" stroke-width="0.162324" stroke-miterlimit="10"/>
<path d="M115.998 83.9943C116.661 84.1707 119.922 84.9612 120.635 85.1941C121.348 85.4199 123.74 86.1609 123.74 88.9346C123.74 91.1224 121.884 93.4655 117.812 93.4655C114.015 93.4655 112.06 91.6305 112.06 89.4709C112.06 87.6148 113.33 86.5703 114.325 85.7798C113.789 85.554 113.612 85.4764 113.125 85.2435L113.076 84.94C113.867 83.7967 114.17 83.3379 114.805 82.3428C113.097 81.6582 112.363 80.0773 112.363 78.5247C112.363 77.7836 112.519 77.0002 112.9 76.2592C114.121 73.9161 116.668 73.7891 118.066 73.7891C118.475 73.7891 118.983 73.8173 119.491 73.8173L120.127 73.8455C121.58 73.8737 122.138 73.8737 123.973 73.8455L124.1 74.0008C124.048 74.5795 124.006 75.1394 123.973 75.6805L123.818 75.8357L121.679 75.6805C122.597 76.4709 122.879 77.5648 122.879 78.5317C122.879 80.896 121.072 82.9356 117.889 82.9356C117.459 82.9356 117.148 82.9074 116.767 82.858L116.005 84.0013L115.998 83.9943ZM116.076 86.4644C115.186 87.3537 114.572 88.0947 114.572 89.238C114.572 90.1767 115.335 91.7576 117.932 91.7576C120.021 91.7576 121.009 90.6354 121.009 89.4427C121.009 87.763 119.506 87.3819 117.903 86.9443L116.069 86.4644H116.076ZM117.678 75.5182C116.026 75.5182 114.982 76.7391 114.982 78.4188C114.982 79.668 115.617 81.2418 117.678 81.2418C119.738 81.2418 120.303 79.6115 120.275 78.4188C120.247 77.0426 119.59 75.5182 117.678 75.5182Z" fill="#7D858B" stroke="#7D858B" stroke-width="0.162324" stroke-miterlimit="10"/>
<path d="M136.825 83.9937C136.698 85.01 136.67 85.264 136.62 86.2592L136.465 86.4356C136.035 86.6614 134.658 87.4025 132.393 87.4025C128.215 87.4025 125.596 85.01 125.596 80.5778C125.596 75.8422 128.448 73.5273 131.786 73.5273C133.797 73.5273 135.195 74.3672 135.964 75.2847C137.418 77.0138 137.361 79.5333 137.34 80.6555L137.164 80.8107C133.19 80.7825 132.506 80.7825 128.328 80.8107C128.356 81.7 128.427 82.9492 129.295 83.9937C130.339 85.2429 131.793 85.3699 132.576 85.3699C133.317 85.3699 134.08 85.2429 134.792 84.9888C135.731 84.6077 136.296 84.149 136.627 83.8666L136.832 83.9937H136.825ZM134.454 77.3455C133.946 75.9481 132.823 75.3623 131.68 75.3623C130.254 75.3623 128.575 76.3292 128.321 78.877C131.398 78.9052 132.372 78.877 134.708 78.8487C134.679 78.4959 134.658 77.9312 134.454 77.3455Z" fill="#7D858B" stroke="#7D858B" stroke-width="0.162324" stroke-miterlimit="10"/>
<path d="M142.803 87.0756C141.582 87.1038 141.328 87.125 140.128 87.1744L140.001 86.998C140.05 85.1912 140.128 82.8975 140.128 78.0137C140.128 74.4991 140.128 70.7303 139.874 67.4768L140.001 67.3215C141.25 67.1169 141.504 67.0675 142.774 66.7852L142.93 66.9616C142.753 70.2998 142.753 73.6592 142.753 76.9904C142.753 82.5658 142.831 84.4996 142.958 86.9203L142.803 87.0756Z" fill="#7D858B" stroke="#7D858B" stroke-width="0.162324" stroke-miterlimit="10"/>
<path d="M156.981 83.9937C156.854 85.01 156.826 85.264 156.777 86.2592L156.621 86.4356C156.191 86.6614 154.815 87.4025 152.549 87.4025C148.371 87.4025 145.753 85.01 145.753 80.5778C145.753 75.8422 148.604 73.5273 151.942 73.5273C153.954 73.5273 155.351 74.3672 156.12 75.2847C157.574 77.0138 157.518 79.5333 157.496 80.6555L157.32 80.8107C153.347 80.7825 152.662 80.7825 148.484 80.8107C148.512 81.7 148.583 82.9492 149.451 83.9937C150.495 85.2429 151.949 85.3699 152.733 85.3699C153.474 85.3699 154.236 85.2429 154.949 84.9888C155.887 84.6077 156.452 84.149 156.784 83.8666L156.988 83.9937H156.981ZM154.61 77.3455C154.102 75.9481 152.98 75.3623 151.836 75.3623C150.411 75.3623 148.731 76.3292 148.477 78.877C151.554 78.9052 152.528 78.877 154.864 78.8487C154.836 78.4959 154.815 77.9312 154.61 77.3455Z" fill="#7D858B" stroke="#7D858B" stroke-width="0.162324" stroke-miterlimit="10"/>
<path d="M165.584 79.3639C166.601 79.6956 168.923 80.4861 168.923 83.1821C168.923 84.1984 168.541 85.3487 167.497 86.1886C166.149 87.3319 164.342 87.4095 163.425 87.4095C162.048 87.4095 160.905 87.1555 159.938 86.7744C159.811 86.725 159.684 86.6756 159.557 86.6191L159.43 86.3933C159.529 85.3981 159.529 85.2711 159.585 84.2548L159.839 84.1772C160.298 84.5301 161.42 85.3981 163.375 85.3981C165.33 85.3981 166.128 84.276 166.128 83.4855C166.128 82.314 165.034 81.9329 163.481 81.4247L162.67 81.1424C161.625 80.8107 159.331 80.0697 159.331 77.4513C159.331 74.833 161.625 73.5273 164.476 73.5273C166.361 73.5273 167.68 74.0637 168.139 74.2402L168.266 74.4166C168.167 75.3552 168.139 75.4611 168.061 76.428L167.836 76.5268C167.2 76.1175 166.205 75.5105 164.554 75.5105C164.201 75.5105 163.841 75.5387 163.46 75.6375C162.698 75.8422 162.063 76.3786 162.063 77.162C162.063 78.2559 163.107 78.5876 164.688 79.0746L165.605 79.3569L165.584 79.3639Z" fill="#7D858B" stroke="#7D858B" stroke-width="0.162324" stroke-miterlimit="10"/>
</g>
<defs>
<clipPath id="clip0_102_1311">
<rect width="169" height="93.5478" fill="white" transform="translate(0 0.00390625)"/>
</clipPath>
</defs>
</svg>
