<svg width="29" height="25" viewBox="0 0 29 25" fill="none" xmlns="http://www.w3.org/2000/svg">
<path d="M18.5 11.634C19.1667 12.0189 19.1667 12.9811 18.5 13.366L13.25 16.3971C12.5833 16.782 11.75 16.3009 11.75 15.5311L11.75 9.46891C11.75 8.69911 12.5833 8.21799 13.25 8.60289L18.5 11.634Z" fill="#266AEA"/>
<path d="M24.6565 7.06621C25.8134 9.24963 26.2392 11.748 25.8713 14.1926C25.5033 16.6371 24.3611 18.8984 22.613 20.6425C20.865 22.3866 18.6039 23.5212 16.1634 23.8788C13.7229 24.2364 11.2324 23.798 9.05946 22.6284C6.88651 21.4588 5.14628 19.62 4.09562 17.3833C3.04496 15.1466 2.73955 12.6306 3.22447 10.2066C3.70939 7.7826 4.95894 5.57911 6.78869 3.92136C8.61844 2.26361 10.9314 1.23943 13.3863 1" stroke="#266AEA" stroke-width="2" stroke-linecap="round"/>
</svg>
