<svg width="26" height="27" viewBox="0 0 26 27" fill="none" xmlns="http://www.w3.org/2000/svg">
<path d="M25.7971 14.9979L25.7987 14.9977V14.9128C25.7987 13.3273 24.4596 12.0675 22.7984 12.0675C21.1372 12.0675 19.7982 13.3273 19.7982 14.9128C19.7982 16.0988 20.5584 17.1156 21.6438 17.5333V19.1553C21.6438 22.1174 19.0866 24.5456 15.9434 24.5456C12.8003 24.5456 10.243 22.1174 10.243 19.1553V17.2741C13.7591 16.7923 16.5387 14.1127 16.8925 10.6526L16.8925 10.6522L17.7419 2.0569C17.7419 2.05673 17.7419 2.05656 17.7419 2.05639C17.774 1.75033 17.6765 1.44489 17.4523 1.20216L17.4522 1.20212C17.2259 0.957322 16.9051 0.837327 16.5878 0.837327L14.0268 0.837517C13.6881 0.448839 13.204 0.199805 12.6329 0.199805C11.615 0.199805 10.8045 0.98928 10.8045 1.93576C10.8045 2.88353 11.6456 3.67172 12.6329 3.67172C13.204 3.67172 13.6881 3.42269 14.0268 3.034H15.2764L14.5548 10.4111L14.5547 10.4113C14.2965 13.1007 11.9415 15.1457 9.05897 15.1457C6.17751 15.1457 3.85053 13.1016 3.56313 10.4107C3.56311 10.4105 3.5631 10.4104 3.56308 10.4102L2.84153 3.034H4.09116C4.42981 3.42268 4.91392 3.67172 5.48504 3.67172C6.50288 3.67172 7.31338 2.88226 7.31339 1.93579L25.7971 14.9979ZM25.7971 14.9979C25.7617 16.1476 25.0125 17.1256 23.9822 17.5591V19.1834C23.9822 23.4029 20.3874 26.7979 15.9433 26.7979C11.4989 26.7979 7.90434 23.3751 7.90434 19.1834V17.3015C4.38916 16.7933 1.6087 14.1416 1.25492 10.6806L1.25489 10.6803L0.405507 2.08497C0.405496 2.08486 0.405484 2.08475 0.405473 2.08464C0.372748 1.77291 0.50444 1.47029 0.689938 1.23584L0.694724 1.22979L0.694942 1.22999C0.921326 0.985195 1.24202 0.8652 1.55937 0.8652H4.09116C4.4298 0.476514 4.91392 0.227484 5.48504 0.227484C6.50058 0.227484 7.31359 0.986897 7.31339 1.93576L25.7971 14.9979Z" fill="#266AEA" stroke="#266AEA" stroke-width="0.2"/>
</svg>
