<svg width="29" height="29" viewBox="0 0 29 29" fill="none" xmlns="http://www.w3.org/2000/svg">
<path d="M27.7971 15.998L27.7987 15.9978V15.9128C27.7987 14.3273 26.4596 13.0675 24.7984 13.0675C23.1372 13.0675 21.7982 14.3273 21.7982 15.9128C21.7982 17.0988 22.5584 18.1156 23.6438 18.5333V20.1553C23.6438 23.1174 21.0866 25.5456 17.9434 25.5456C14.8003 25.5456 12.243 23.1174 12.243 20.1553V18.2741C15.7591 17.7923 18.5387 15.1127 18.8925 11.6526L18.8925 11.6522L19.7419 3.0569C19.7419 3.05684 19.7419 3.05677 19.7419 3.0567C19.7741 2.75053 19.6766 2.44497 19.4523 2.20216L19.4522 2.20212C19.2259 1.95732 18.9051 1.83733 18.5878 1.83733L16.0268 1.83752C15.6881 1.44884 15.204 1.1998 14.6329 1.1998C13.615 1.1998 12.8045 1.98928 12.8045 2.93576C12.8045 3.88353 13.6456 4.67172 14.6329 4.67172C15.204 4.67172 15.6881 4.42269 16.0268 4.034H17.2764L16.5548 11.4111L16.5547 11.4113C16.2965 14.1007 13.9415 16.1457 11.059 16.1457C8.17751 16.1457 5.85052 14.1016 5.56313 11.4107C5.56311 11.4105 5.5631 11.4104 5.56308 11.4102L4.84153 4.034H6.09116C6.42981 4.42268 6.91392 4.67172 7.48504 4.67172C8.50288 4.67172 9.31338 3.88226 9.31339 2.93579L27.7971 15.998ZM27.7971 15.998C27.7617 17.1477 27.0125 18.1256 25.9822 18.5591V20.1834C25.9822 24.4029 22.3874 27.7979 17.9433 27.7979C13.4989 27.7979 9.90434 24.3751 9.90434 20.1834V18.3015C6.38916 17.7933 3.6087 15.1416 3.25492 11.6806L3.25489 11.6803L2.40551 3.08497C2.4055 3.08486 2.40548 3.08475 2.40547 3.08464C2.37275 2.77291 2.50444 2.47029 2.68994 2.23584L2.69472 2.22979L2.69494 2.22999C2.92133 1.9852 3.24202 1.8652 3.55937 1.8652H6.09116M27.7971 15.998L6.09116 1.8652M6.09116 1.8652C6.4298 1.47651 6.91392 1.22748 7.48504 1.22748C8.50058 1.22748 9.31359 1.9869 9.31339 2.93576L6.09116 1.8652Z" fill="#266AEA" stroke="#266AEA" stroke-width="0.2"/>
</svg>
