<svg width="27" height="17" viewBox="0 0 27 17" fill="none" xmlns="http://www.w3.org/2000/svg">
<path d="M0.320243 9.24659L0.32041 9.24682C0.43254 9.39914 1.80619 11.2592 4.10309 13.0817C6.39941 14.9038 9.62522 16.6936 13.4403 16.6936C17.2554 16.6936 20.4813 14.9038 22.7776 13.0817C25.0745 11.2592 26.4482 9.39912 26.5602 9.24679L26.5604 9.24659C26.6796 9.08331 26.7441 8.88615 26.7441 8.68384C26.7441 8.48152 26.6796 8.28437 26.5604 8.12108L26.5602 8.12085C26.4481 7.96853 25.0744 6.10848 22.7775 4.28597C20.4812 2.46391 17.2554 0.674098 13.4403 0.674098C9.62522 0.674098 6.39935 2.46392 4.10299 4.28598C1.80607 6.1085 0.432416 7.96855 0.320389 8.12088L0.320245 8.12108C0.201026 8.28436 0.136501 8.48152 0.136501 8.68384C0.136501 8.88615 0.201027 9.08331 0.320243 9.24659ZM13.4403 14.7857C10.6778 14.7857 8.216 13.6428 6.27814 12.3003C4.37806 10.9841 2.98657 9.4793 2.31595 8.68404C2.98661 7.88877 4.37811 6.38401 6.27817 5.06773C8.21603 3.72529 10.6778 2.58239 13.4403 2.58239C16.2028 2.58239 18.6646 3.72529 20.6025 5.06773C22.5026 6.38401 23.894 7.88877 24.5647 8.68404C23.894 9.4793 22.5025 10.9841 20.6024 12.3003C18.6646 13.6428 16.2028 14.7857 13.4403 14.7857Z" fill="#266AEA" stroke="#266AEA" stroke-width="0.143991"/>
<path d="M13.4404 13.1659C11.8392 13.1659 10.3597 12.3118 9.55915 10.925C8.75864 9.5383 8.75864 7.83002 9.55915 6.44329C10.3597 5.05656 11.8393 4.20242 13.4404 4.20242C13.7813 4.20242 14.0963 4.38426 14.2666 4.6794C14.437 4.97452 14.437 5.33821 14.2666 5.63333C14.0963 5.92846 13.7813 6.11031 13.4404 6.11031C12.7577 6.11031 12.1032 6.38147 11.6204 6.86407C11.6204 6.86407 11.6204 6.86408 11.6203 6.86409M13.4404 13.1659L11.5695 10.5551C11.0734 10.0588 10.7946 9.38599 10.7946 8.68416C10.7946 7.98233 11.0734 7.30946 11.5695 6.81317M13.4404 13.1659C14.6291 13.1659 15.7689 12.6937 16.6095 11.8532C17.45 11.0127 17.9222 9.87282 17.9222 8.68416C17.9222 8.34327 17.7403 8.02834 17.4452 7.85799C17.1501 7.68764 16.7864 7.68764 16.4913 7.85799C16.1961 8.02834 16.0143 8.34326 16.0143 8.68416C16.0143 9.36688 15.7431 10.0214 15.2605 10.5042M13.4404 13.1659L15.2605 10.5042M11.6203 6.86409L11.5695 6.81317M11.6203 6.86409C11.1378 7.34688 10.8666 8.00143 10.8666 8.68416C10.8666 9.36688 11.1378 10.0214 11.6204 10.5042M11.6203 6.86409L11.6204 10.5042M11.5695 6.81317C12.0658 6.31707 12.7386 6.03831 13.4404 6.03831C13.7556 6.03831 14.0468 5.87019 14.2043 5.59734C14.3618 5.32449 14.3618 4.98824 14.2043 4.71539C14.0468 4.44253 13.7556 4.27441 13.4404 4.27441C11.865 4.27441 10.4092 5.11484 9.6215 6.47929C8.83385 7.84374 8.83385 9.52458 9.6215 10.889C10.4092 12.2535 11.8649 13.0939 13.4404 13.0939C14.61 13.0939 15.7315 12.6293 16.5586 11.8023C17.3856 10.9753 17.8502 9.85372 17.8502 8.68416C17.8502 8.36899 17.6821 8.07783 17.4092 7.92034C17.1364 7.76285 16.8001 7.76285 16.5273 7.92034C16.2544 8.07783 16.0863 8.36898 16.0863 8.68416C16.0863 9.38599 15.8075 10.0589 15.3114 10.5551L15.2605 10.5042M11.5695 6.81317L11.6204 10.5043M11.6204 10.5042C11.6204 10.5042 11.6204 10.5042 11.6204 10.5043M11.6204 10.5042L11.6204 10.5043M11.6204 10.5043C12.1032 10.9868 12.7577 11.258 13.4404 11.258C14.1232 11.258 14.7777 10.9868 15.2605 10.5043C15.2605 10.5042 15.2605 10.5042 15.2605 10.5042" fill="#266AEA" stroke="#266AEA" stroke-width="0.143991"/>
<path d="M16.0861 6.99214C16.6129 6.99214 17.04 6.565 17.04 6.0382C17.04 5.51139 16.6129 5.08425 16.0861 5.08425C15.5592 5.08425 15.1321 5.51139 15.1321 6.0382C15.1321 6.565 15.5592 6.99214 16.0861 6.99214Z" fill="#266AEA" stroke="#266AEA" stroke-width="0.143991"/>
</svg>
