<svg width="29" height="29" viewBox="0 0 29 29" fill="none" xmlns="http://www.w3.org/2000/svg">
<rect x="3.24998" y="3.249" width="22.4996" height="22.4996" rx="2.91662" stroke="#266AEA" stroke-width="2.49996"/>
<path d="M18.8266 12.5757H16.4228V10.1719C16.4228 9.4851 16.0562 8.85024 15.4613 8.50658C14.8664 8.16317 14.1333 8.16317 13.5385 8.50658C12.9435 8.85031 12.577 9.4851 12.577 10.1719V12.5757H10.1732C9.48608 12.5757 8.85129 12.9423 8.50755 13.5375C8.16415 14.1324 8.16415 14.8655 8.50755 15.4604C8.85129 16.0553 9.48607 16.4219 10.1732 16.4219H12.577V18.8257C12.577 19.5128 12.9436 20.1476 13.5385 20.491C14.1334 20.8347 14.8665 20.8347 15.4613 20.491C16.0562 20.1476 16.4228 19.5127 16.4228 18.8257V16.4219H18.8266C19.5137 16.4219 20.1485 16.0553 20.4922 15.4604C20.8356 14.8655 20.8356 14.1324 20.4922 13.5375C20.1485 12.9423 19.5137 12.5757 18.8266 12.5757Z" fill="#266AEA" stroke="white" stroke-width="1.04165"/>
</svg>
