<svg width="84" height="84" viewBox="0 0 84 84" fill="none" xmlns="http://www.w3.org/2000/svg">
<path d="M42 0C30.8609 0 20.1778 4.42504 12.3017 12.3017C4.42504 20.1784 0 30.8613 0 42C0 53.1387 4.42504 63.8222 12.3017 71.6983C20.1784 79.575 30.8613 84 42 84C53.1387 84 63.8222 79.575 71.6983 71.6983C79.575 63.8216 84 53.1387 84 42C83.9867 30.8647 79.5578 20.1898 71.6843 12.3157C63.81 4.44224 53.1349 0.0132001 42 0ZM59.7798 45.0044L34.9995 59.832C34.2878 60.2578 33.4487 60.4171 32.6307 60.282C31.8127 60.1468 31.069 59.7249 30.5331 59.0929C29.9964 58.4609 29.7026 57.6585 29.7026 56.8297V27.1734C29.7026 26.3445 29.9964 25.5421 30.5331 24.9102C31.069 24.2781 31.8128 23.8563 32.6307 23.7211C33.4487 23.5859 34.2878 23.7453 34.9995 24.1711L59.7798 38.9986C60.836 39.6307 61.4821 40.7713 61.4821 42.0019C61.4821 43.2324 60.836 44.3729 59.7798 45.0051V45.0044Z" fill="white"/>
</svg>
