<svg width="21" height="21" viewBox="0 0 21 21" fill="none" xmlns="http://www.w3.org/2000/svg">
<g clip-path="url(#clip0_1_1579)">
<path d="M6.9577 12.7837C6.9577 12.2554 7.38589 11.8272 7.91418 11.8272H9.8273V9.91412C9.8273 9.38583 10.2555 8.95764 10.7838 8.95764C11.3121 8.95764 11.7402 9.38583 11.7402 9.91412V11.8272H13.6534C14.1817 11.8272 14.6098 12.2554 14.6098 12.7837C14.6098 13.312 14.1817 13.7402 13.6534 13.7402H11.7402V15.6533C11.7402 16.1816 11.3121 16.6098 10.7838 16.6098C10.2555 16.6098 9.8273 16.1816 9.8273 15.6533V13.7402H7.91418C7.38589 13.7402 6.9577 13.312 6.9577 12.7837Z" fill="#266AEA"/>
<path fill-rule="evenodd" clip-rule="evenodd" d="M6.00093 0.348877C6.52922 0.348877 6.95757 0.777061 6.95757 1.30535V2.26183H14.6095V1.30535C14.6095 0.777061 15.0379 0.348877 15.5662 0.348877C16.0945 0.348877 16.5227 0.777061 16.5227 1.30535V2.26183H17.4791C19.0641 2.26183 20.3487 3.54659 20.3487 5.13142V16.6098C20.3487 18.1948 19.0641 19.4794 17.4791 19.4794H4.08798C2.50314 19.4794 1.21838 18.1948 1.21838 16.6098V5.13142C1.21838 3.54659 2.50314 2.26183 4.08798 2.26183H5.04445V1.30535C5.04445 0.777061 5.47264 0.348877 6.00093 0.348877ZM4.08798 4.17495C3.55968 4.17495 3.13134 4.60313 3.13134 5.13142V6.08806H18.4361V5.13142C18.4361 4.60313 18.0078 4.17495 17.4795 4.17495H4.08798ZM3.13134 8.00102H18.4361V16.6098C18.4361 17.1381 18.0078 17.5664 17.4795 17.5664H4.0883C3.56001 17.5664 3.13166 17.1381 3.13166 16.6098L3.13134 8.00102Z" fill="#266AEA"/>
</g>
<defs>
<clipPath id="clip0_1_1579">
<rect width="20.0001" height="20.0001" fill="white" transform="translate(0.348816 0.348877)"/>
</clipPath>
</defs>
</svg>
