<svg width="21" height="21" viewBox="0 0 21 21" fill="none" xmlns="http://www.w3.org/2000/svg">
<rect x="1.74999" y="1.74999" width="17.9999" height="17.9999" rx="2.33331" stroke="#266AEA" stroke-width="1.99998"/>
<path d="M14.2113 9.2114H12.2882V7.28832C12.2882 6.73887 11.995 6.23097 11.5191 5.95604C11.0431 5.68132 10.4566 5.68132 9.98074 5.95604C9.50481 6.23104 9.21159 6.73887 9.21159 7.28832V9.2114H7.28853C6.73881 9.2114 6.23098 9.50463 5.95598 9.98083C5.68126 10.4568 5.68126 11.0433 5.95598 11.5192C6.23097 11.9951 6.73881 12.2883 7.28853 12.2883H9.21159V14.2114C9.21159 14.7611 9.50482 15.2689 9.98074 15.5437C10.4567 15.8187 11.0432 15.8187 11.5191 15.5437C11.995 15.2689 12.2882 14.7611 12.2882 14.2114V12.2883H14.2113C14.761 12.2883 15.2688 11.9951 15.5438 11.5192C15.8185 11.0432 15.8185 10.4567 15.5438 9.98083C15.2688 9.50463 14.761 9.2114 14.2113 9.2114Z" fill="#266AEA" stroke="white" stroke-width="0.833327"/>
</svg>
