<svg width="12" height="12" viewBox="0 0 12 12" fill="none" xmlns="http://www.w3.org/2000/svg">
<g clip-path="url(#clip0_2_399)">
<path d="M4.73111 9.98458L4.6206 9.92579L4.73468 9.97776L5.57723 8.34329C5.57739 8.343 5.57754 8.3427 5.57769 8.3424C5.8299 7.85516 5.69549 7.2553 5.26574 6.92211C5.26564 6.92202 5.26553 6.92194 5.26543 6.92186L4.9068 6.64362C5.11699 6.30507 5.34875 6.01103 5.68025 5.67866C6.033 5.32498 6.33436 5.09165 6.66603 4.8894L6.94472 5.24623C7.27749 5.67622 7.87738 5.81137 8.36493 5.55728C8.36493 5.55728 8.36494 5.55728 8.36494 5.55728L9.9858 4.71258C9.9861 4.71242 9.9864 4.71227 9.98671 4.71211C10.5933 4.39749 10.7776 3.62687 10.4139 3.07035L10.414 3.07032L10.4099 3.0643L9.71335 2.02581L9.7134 2.02578L9.70882 2.01916C9.42958 1.61469 8.9568 1.37066 8.45344 1.40281C8.16205 1.42109 7.73217 1.45962 7.4074 1.5514C6.12379 1.88736 4.8346 2.67653 3.75731 3.76611C2.67894 4.84763 1.89328 6.14052 1.55026 7.42519L1.55018 7.42517L1.54779 7.43475C1.47015 7.74598 1.43042 8.17263 1.40408 8.46321L1.40332 8.4716L1.40279 8.48002C1.37166 8.97906 1.6035 9.47782 2.04506 9.75813L3.09697 10.4368L3.11773 10.4502L3.13951 10.4619C3.69485 10.7586 4.42214 10.5654 4.73111 9.98458Z" stroke="#266AEA" stroke-width="1.2"/>
</g>
<defs>
<clipPath id="clip0_2_399">
<rect width="12.0001" height="12.0002" fill="white"/>
</clipPath>
</defs>
</svg>
